<?xml version="1.0" encoding="UTF-8" standalone="no"?><!DOCTYPE svg PUBLIC "-//W3C//DTD SVG 1.1//EN" "http://www.w3.org/Graphics/SVG/1.1/DTD/svg11.dtd"><svg width="100%" height="100%" viewBox="0 0 439 103" version="1.1" xmlns="http://www.w3.org/2000/svg" xmlns:xlink="http://www.w3.org/1999/xlink" xml:space="preserve" xmlns:serif="http://www.serif.com/" style="fill-rule:evenodd;clip-rule:evenodd;stroke-linejoin:round;stroke-miterlimit:2;"><path d="M28.08,102.384l-1.872,0c-5.472,0 -9.912,-0.744 -13.32,-2.232c-3.408,-1.488 -6.072,-3.384 -7.992,-5.688c-1.92,-2.304 -3.216,-4.824 -3.888,-7.56c-0.672,-2.736 -1.008,-5.352 -1.008,-7.848c0,-2.112 0.264,-4.152 0.792,-6.12c0.528,-1.968 1.296,-3.696 2.304,-5.184c1.008,-1.488 2.232,-2.688 3.672,-3.6c1.44,-0.912 3.072,-1.368 4.896,-1.368c1.728,0 2.832,0.456 3.312,1.368c0.48,0.912 0.72,1.848 0.72,2.808c0,2.112 -0.432,3.864 -1.296,5.256c-0.864,1.392 -1.8,2.616 -2.808,3.672c-1.008,1.056 -1.944,2.112 -2.808,3.168c-0.864,1.056 -1.296,2.352 -1.296,3.888c0,4.608 1.536,7.92 4.608,9.936c3.072,2.016 6.912,3.024 11.52,3.024c4.032,0 7.536,-0.816 10.512,-2.448c2.976,-1.632 5.448,-3.696 7.416,-6.192c1.968,-2.496 3.432,-5.208 4.392,-8.136c0.96,-2.928 1.44,-5.688 1.44,-8.28l-2.16,0.144c-3.456,0 -6.456,-0.792 -9,-2.376c-2.544,-1.584 -4.656,-3.576 -6.336,-5.976c-1.68,-2.4 -2.928,-4.992 -3.744,-7.776c-0.816,-2.784 -1.224,-5.376 -1.224,-7.776l0,-5.04c0,-1.824 0.24,-3.96 0.72,-6.408c0.48,-2.448 1.152,-4.992 2.016,-7.632c0.864,-2.64 1.92,-5.232 3.168,-7.776c1.248,-2.544 2.592,-4.824 4.032,-6.84c1.44,-2.016 2.976,-3.648 4.608,-4.896c1.632,-1.248 3.312,-1.872 5.04,-1.872c0.672,0 1.44,0.144 2.304,0.432l10.08,0.72c0.672,0.096 1.32,0.336 1.944,0.72c0.624,0.384 0.936,1.056 0.936,2.016c-0.096,0.096 -0.216,0.336 -0.36,0.72c-0.144,0.384 -0.216,1.056 -0.216,2.016c0,1.344 0.192,2.64 0.576,3.888l0,47.664c0,4.896 -0.48,9.6 -1.44,14.112c-0.96,4.512 -2.616,8.52 -4.968,12.024c-2.352,3.504 -5.568,6.288 -9.648,8.352c-4.08,2.064 -9.288,3.096 -15.624,3.096Zm153.296,-15.857c-0.481,1.238 -1.011,2.468 -1.592,3.689c-1.392,2.928 -3.096,5.496 -5.112,7.704c-2.016,2.208 -4.368,3.312 -7.056,3.312c-2.592,0 -4.848,-0.744 -6.768,-2.232c-1.92,-1.488 -3.528,-3.552 -4.824,-6.192c-1.296,-2.64 -2.28,-5.76 -2.952,-9.36c-0.672,-3.6 -1.008,-7.464 -1.008,-11.592l0,-1.296c0.096,-4.896 0.24,-9.888 0.432,-14.976c0.192,-5.088 0.384,-9.792 0.576,-14.112c0,-0.768 -0.768,-1.296 -2.304,-1.584c-1.536,-0.288 -3.264,-0.576 -5.184,-0.864c-1.92,-0.288 -3.648,-0.744 -5.184,-1.368c-1.536,-0.624 -2.304,-1.656 -2.304,-3.096c0,-1.248 1.248,-1.968 3.744,-2.16c2.496,-0.192 6.192,-0.288 11.088,-0.288c0.384,0 0.648,-0.576 0.792,-1.728c0.144,-1.152 0.24,-2.616 0.288,-4.392c0.048,-1.776 0.096,-3.672 0.144,-5.688c0.048,-2.016 0.12,-3.912 0.216,-5.688c0.096,-1.776 0.264,-3.24 0.504,-4.392c0.24,-1.152 0.552,-1.728 0.936,-1.728c0.48,0 1.344,0.096 2.592,0.288c1.248,0.192 2.544,0.456 3.888,0.792c1.344,0.336 2.52,0.744 3.528,1.224c1.008,0.48 1.512,1.008 1.512,1.584l-1.584,18.72c0,0.576 0.504,0.984 1.512,1.224c1.008,0.24 2.304,0.384 3.888,0.432c1.584,0.048 3.264,0.072 5.04,0.072c1.776,0 3.456,0.144 5.04,0.432c1.584,0.288 2.88,0.744 3.888,1.368c1.008,0.624 1.512,1.56 1.512,2.808c0,0.192 -0.096,0.504 -0.288,0.936c-0.192,0.432 -0.432,0.648 -0.72,0.648c-0.192,0 -0.456,-0.144 -0.792,-0.432c-0.336,-0.288 -1.224,-0.432 -2.664,-0.432c-0.384,0 -1.44,0.048 -3.168,0.144c-1.728,0.096 -3.552,0.24 -5.472,0.432c-1.92,0.192 -3.672,0.408 -5.256,0.648c-1.584,0.24 -2.472,0.552 -2.664,0.936c-0.096,0.192 -0.216,1.32 -0.36,3.384c-0.144,2.064 -0.288,4.776 -0.432,8.136c-0.144,3.36 -0.264,7.224 -0.36,11.592c-0.096,4.368 -0.144,8.952 -0.144,13.752c0,1.824 0.096,3.6 0.288,5.328c0.192,1.728 0.48,3.288 0.864,4.68c0.384,1.392 0.888,2.52 1.512,3.384c0.624,0.864 1.368,1.296 2.232,1.296c1.248,0 2.4,-0.528 3.456,-1.584c1.056,-1.056 2.016,-2.496 2.88,-4.32c0.864,-1.824 1.632,-3.888 2.304,-6.192c0.672,-2.304 1.248,-4.656 1.728,-7.056c0.288,-1.44 0.624,-2.472 1.008,-3.096c0.015,-0.025 0.031,-0.05 0.047,-0.074c0.155,-3.014 0.403,-5.941 0.745,-8.782c0.624,-5.184 1.656,-9.768 3.096,-13.752c1.44,-3.984 3.312,-7.152 5.616,-9.504c2.304,-2.352 5.088,-3.528 8.352,-3.528c1.92,0 3.384,0.168 4.392,0.504c1.008,0.336 1.944,0.72 2.808,1.152c0.864,0.432 1.8,0.888 2.808,1.368c1.008,0.48 2.424,0.864 4.248,1.152c2.016,1.152 3.432,2.52 4.248,4.104c0.816,1.584 1.344,3.288 1.584,5.112c0.24,1.824 0.312,3.72 0.216,5.688c-0.096,1.968 0,3.912 0.288,5.832c0,0.096 0.216,0.24 0.648,0.432c0.432,0.192 0.936,0.408 1.512,0.648c0.576,0.24 1.08,0.576 1.512,1.008c0.432,0.432 0.648,0.984 0.648,1.656l0,0.576c-0.96,2.496 -1.536,4.704 -1.728,6.624c-0.192,1.92 -0.288,4.224 -0.288,6.912c0,1.344 0.072,2.808 0.216,4.392c0.144,1.584 0.384,3.072 0.72,4.464c0.336,1.392 0.84,2.544 1.512,3.456c0.672,0.912 1.536,1.368 2.592,1.368c1.152,0 2.184,-0.576 3.096,-1.728c0.912,-1.152 1.68,-2.472 2.304,-3.96c0.624,-1.488 1.152,-3 1.584,-4.536c0.208,-0.738 0.377,-1.388 0.507,-1.949c-0.194,-1.631 -0.291,-3.354 -0.291,-5.17c0,-3.849 0.504,-7.891 1.512,-12.125c1.008,-4.235 3.048,-8.084 6.12,-11.547c2.688,-3.08 5.832,-5.534 9.432,-7.362c3.6,-1.829 7.272,-2.743 11.016,-2.743c1.824,0 3.48,0.268 4.968,0.805c1.488,0.537 2.328,1.196 2.52,1.976c0.192,1.074 0.312,2.415 0.36,4.023c0.048,1.608 0.072,3.708 0.072,6.3c0,2.208 -0.168,3.84 -0.504,4.896c-0.336,1.056 -1.032,1.584 -2.088,1.584c-1.152,-0.096 -1.968,-0.696 -2.448,-1.8c-0.48,-1.104 -0.96,-2.304 -1.44,-3.6c-0.48,-1.296 -1.104,-2.496 -1.872,-3.6c-0.768,-1.104 -2.016,-1.704 -3.744,-1.8c-2.496,0 -4.56,0.96 -6.192,2.88c-1.632,1.92 -2.904,4.176 -3.816,6.768c-0.912,2.592 -1.536,5.184 -1.872,7.776c-0.336,2.592 -0.504,4.608 -0.504,6.048c0,5.568 0.84,10.344 2.52,14.328c1.68,3.984 4.68,6.168 9,6.552l1.584,0.144c2.976,0 5.376,-0.744 7.2,-2.232c1.824,-1.488 3.288,-3.12 4.392,-4.896c1.104,-1.776 1.968,-3.408 2.592,-4.896c0.624,-1.488 1.272,-2.232 1.944,-2.232l0.432,0c1.248,0.096 1.872,0.912 1.872,2.448c0,0.672 -0.24,1.632 -0.72,2.88c-2.304,5.472 -5.256,9.432 -8.856,11.88c-3.6,2.448 -7.848,3.672 -12.744,3.672c-0.48,0 -0.936,0 -1.368,0c-0.432,0 -0.888,-0.048 -1.368,-0.144c-2.4,-0.288 -4.704,-1.034 -6.912,-2.237c-2.208,-1.203 -4.128,-2.887 -5.76,-5.052c-1.214,-1.611 -2.242,-3.488 -3.084,-5.631c-0.736,1.655 -1.652,3.249 -2.748,4.784c-1.2,1.68 -2.592,3.096 -4.176,4.248c-1.584,1.152 -3.336,1.728 -5.256,1.728c-2.88,0 -5.4,-1.104 -7.56,-3.312c-2.16,-2.208 -3.48,-5.328 -3.96,-9.36c-0.576,1.536 -1.248,3.312 -2.016,5.328c-0.768,2.016 -1.728,3.888 -2.88,5.616c-1.152,1.728 -2.472,3.192 -3.96,4.392c-1.488,1.2 -3.24,1.8 -5.256,1.8c-0.576,0 -1.008,-0.048 -1.296,-0.144c-0.288,-0.096 -0.6,-0.216 -0.936,-0.36c-0.336,-0.144 -0.72,-0.264 -1.152,-0.36c-0.432,-0.096 -1.032,-0.144 -1.8,-0.144c-2.304,0 -4.248,-0.744 -5.832,-2.232c-1.584,-1.488 -2.856,-3.384 -3.816,-5.688c-0.765,-1.837 -1.363,-3.81 -1.792,-5.921Zm171.176,-18.355c-0.62,0.988 -1.258,1.901 -1.912,2.741c-0.768,1.053 -1.608,2.011 -2.52,2.873c-0.912,0.863 -1.848,1.677 -2.808,2.444c-0.096,1.627 -0.168,2.753 -0.216,3.376c-0.048,0.623 -0.12,1.126 -0.216,1.509c-0.192,1.437 -0.672,3.257 -1.44,5.459c-0.768,2.203 -1.848,4.358 -3.24,6.466c-1.392,2.107 -3.072,3.903 -5.04,5.388c-1.968,1.485 -4.248,2.228 -6.84,2.228c-0.864,0 -1.848,-0.096 -2.952,-0.287c-1.104,-0.191 -2.232,-0.454 -3.384,-0.79c-1.152,-0.335 -2.256,-0.718 -3.312,-1.149c-1.056,-0.432 -1.968,-0.887 -2.736,-1.367c-2.4,-1.341 -4.368,-2.922 -5.904,-4.741c-1.536,-1.82 -2.712,-3.759 -3.528,-5.819c-0.816,-2.059 -1.368,-4.167 -1.656,-6.322c-0.288,-2.156 -0.432,-4.239 -0.432,-6.251c0,-3.448 0.36,-6.945 1.08,-10.489c0.72,-3.545 1.608,-6.945 2.664,-10.202c1.056,-3.256 2.256,-6.178 3.6,-8.764c1.344,-2.587 2.64,-4.598 3.888,-6.034c1.248,-1.342 2.64,-2.277 4.176,-2.803c1.536,-0.527 2.928,-0.79 4.176,-0.79c1.536,0 3.072,0.383 4.608,1.15c1.536,0.766 3.024,1.724 4.464,2.873c1.44,1.149 2.856,2.466 4.248,3.951c1.392,1.485 2.712,2.946 3.96,4.383c0.96,1.053 1.68,2.753 2.16,5.101c0.48,2.347 0.864,4.718 1.152,7.112c0.192,1.341 0.336,2.778 0.432,4.311c0.096,1.533 0.144,3.113 0.144,4.741c1.44,-1.149 2.592,-2.37 3.456,-3.663c0.864,-1.293 1.56,-2.515 2.088,-3.664c0.528,-1.15 0.96,-2.228 1.296,-3.234c0.336,-1.005 0.696,-1.796 1.08,-2.37c0.006,-0.011 0.012,-0.021 0.018,-0.031l0.558,-12.74c0,-1.248 0.672,-1.872 2.016,-1.872c0.48,0 1.152,0.072 2.016,0.216c0.864,0.144 1.776,0.36 2.736,0.648c0.96,0.288 1.776,0.648 2.448,1.08c0.672,0.432 1.008,0.936 1.008,1.512l0,29.232c0.096,-0.096 0.24,-0.48 0.432,-1.152c0.672,-1.728 1.488,-3.864 2.448,-6.408c0.96,-2.544 2.016,-4.968 3.168,-7.272c1.152,-2.304 2.376,-4.272 3.672,-5.904c1.296,-1.632 2.616,-2.448 3.96,-2.448c1.728,0 3.048,0.408 3.96,1.224c0.912,0.816 1.608,1.848 2.088,3.096c0.48,1.248 0.768,2.592 0.864,4.032c0.096,1.44 0.144,2.832 0.144,4.176c0,0.96 -0.096,2.544 -0.288,4.752c-0.192,2.208 -0.288,5.52 -0.288,9.936c0,2.496 0.24,4.752 0.72,6.768c0.48,2.016 1.44,3.024 2.88,3.024c1.056,0 2.016,-0.48 2.88,-1.44c0.864,-0.96 1.656,-2.16 2.376,-3.6c0.72,-1.44 1.32,-2.976 1.8,-4.608c0.48,-1.632 0.768,-3.168 0.864,-4.608c0.025,-0.482 0.094,-0.9 0.207,-1.254c0.137,-2.697 0.5,-5.591 1.089,-8.682c0.768,-4.032 1.968,-7.8 3.6,-11.304c1.632,-3.504 3.696,-6.432 6.192,-8.784c2.496,-2.352 5.52,-3.528 9.072,-3.528c1.728,0 3.36,0.36 4.896,1.08c1.536,0.72 2.88,1.656 4.032,2.808c1.152,1.152 2.064,2.496 2.736,4.032c0.672,1.536 1.056,3.12 1.152,4.752l0.144,2.016c0,2.304 -0.384,4.824 -1.152,7.56c-0.768,2.736 -1.872,5.28 -3.312,7.632c-1.44,2.352 -3.216,4.32 -5.328,5.904c-2.112,1.584 -4.512,2.376 -7.2,2.376c-0.48,0 -1.08,-0.048 -1.8,-0.144c-0.72,-0.096 -1.416,-0.24 -2.088,-0.432l0,4.176c0,0.672 0.216,1.632 0.648,2.88c0.432,1.248 1.08,2.472 1.944,3.672c0.864,1.2 1.992,2.256 3.384,3.168c1.392,0.912 3.096,1.368 5.112,1.368c2.784,0 5.064,-0.552 6.84,-1.656c1.776,-1.104 3.24,-2.52 4.392,-4.248c1.152,-1.728 2.04,-3.672 2.664,-5.832c0.624,-2.16 1.128,-4.248 1.512,-6.264c0.288,-1.344 0.576,-2.256 0.864,-2.736c0.288,-0.48 0.768,-0.72 1.44,-0.72c1.44,0 2.16,0.816 2.16,2.448l0,1.008c0,2.4 -0.432,5.088 -1.296,8.064c-0.864,2.976 -2.208,5.736 -4.032,8.28c-1.824,2.544 -4.152,4.68 -6.984,6.408c-2.832,1.728 -6.216,2.592 -10.152,2.592c-3.744,0 -6.912,-0.672 -9.504,-2.016c-2.592,-1.344 -4.728,-3.168 -6.408,-5.472c-1.523,-2.088 -2.651,-4.511 -3.385,-7.269c-0.289,0.61 -0.601,1.209 -0.935,1.797c-1.2,2.112 -2.76,3.888 -4.68,5.328c-1.92,1.44 -4.272,2.16 -7.056,2.16c-4.32,0 -7.08,-1.56 -8.28,-4.68c-1.2,-3.12 -1.8,-7.752 -1.8,-13.896l0.288,-10.512c-1.44,2.016 -2.616,4.248 -3.528,6.696c-0.912,2.448 -1.704,4.992 -2.376,7.632c-0.672,2.64 -1.224,5.28 -1.656,7.92c-0.432,2.64 -0.888,5.16 -1.368,7.56c-0.192,0.576 -0.936,0.96 -2.232,1.152c-1.296,0.192 -2.232,0.288 -2.808,0.288c-1.728,0 -3.144,-0.096 -4.248,-0.288c-1.104,-0.192 -1.944,-0.648 -2.52,-1.368c-0.576,-0.72 -1.008,-1.824 -1.296,-3.312c-0.288,-1.488 -0.528,-3.48 -0.72,-5.976l0.76,-17.364Zm-46.984,24.276c0,1.152 -0.408,2.16 -1.224,3.024c-0.816,0.864 -1.824,1.632 -3.024,2.304c-1.2,0.672 -2.448,1.176 -3.744,1.512c-1.296,0.336 -2.376,0.504 -3.24,0.504c-1.632,0 -3.432,-0.168 -5.4,-0.504c-1.968,-0.336 -3.624,-1.032 -4.968,-2.088c-1.536,-1.248 -2.808,-3.24 -3.816,-5.976c-1.008,-2.736 -1.776,-6 -2.304,-9.792c-0.528,-3.792 -0.888,-8.016 -1.08,-12.672c-0.192,-4.656 -0.288,-9.528 -0.288,-14.616c0,-2.112 0.072,-4.464 0.216,-7.056c0.144,-2.592 0.312,-5.304 0.504,-8.136c0.192,-2.832 0.432,-5.664 0.72,-8.496c0.288,-2.832 0.576,-5.544 0.864,-8.136c0.288,-1.824 0.624,-3.792 1.008,-5.904c0.384,-2.112 0.792,-4.128 1.224,-6.048c0.432,-1.92 0.936,-3.648 1.512,-5.184c0.576,-1.536 1.2,-2.64 1.872,-3.312c0.768,-0.768 1.8,-1.272 3.096,-1.512c1.296,-0.24 2.472,-0.36 3.528,-0.36c2.208,0 3.984,0.576 5.328,1.728c1.344,1.152 2.376,2.712 3.096,4.68c0.72,1.968 1.2,4.224 1.44,6.768c0.24,2.544 0.36,5.256 0.36,8.136c0,4.416 -0.144,9.192 -0.432,14.328c-0.288,5.136 -0.888,10.296 -1.8,15.48c-0.912,5.184 -2.208,10.224 -3.888,15.12c-1.68,4.896 -3.912,9.36 -6.696,13.392c0.096,1.344 0.264,2.904 0.504,4.68c0.24,1.776 0.6,3.432 1.08,4.968c0.48,1.536 1.104,2.832 1.872,3.888c0.768,1.056 1.776,1.584 3.024,1.584c1.152,0 2.064,-0.264 2.736,-0.792c0.672,-0.528 1.272,-1.128 1.8,-1.8c0.528,-0.672 1.056,-1.272 1.584,-1.8c0.528,-0.528 1.224,-0.792 2.088,-0.792c0.96,0 1.608,0.288 1.944,0.864c0.336,0.576 0.504,1.248 0.504,2.016Zm-191.734,-4.898c-1.135,1.799 -2.552,3.336 -4.25,4.61c-1.92,1.44 -4.272,2.16 -7.056,2.16c-4.32,0 -7.08,-1.56 -8.28,-4.68c-1.2,-3.12 -1.8,-7.752 -1.8,-13.896l0.288,-10.512c-1.44,2.016 -2.616,4.248 -3.528,6.696c-0.912,2.448 -1.704,4.992 -2.376,7.632c-0.672,2.64 -1.224,5.28 -1.656,7.92c-0.432,2.64 -0.888,5.16 -1.368,7.56c-0.192,0.576 -0.936,0.96 -2.232,1.152c-1.296,0.192 -2.232,0.288 -2.808,0.288c-1.728,0 -3.144,-0.096 -4.248,-0.288c-1.104,-0.192 -1.944,-0.648 -2.52,-1.368c-0.576,-0.72 -1.008,-1.824 -1.296,-3.312c-0.288,-1.488 -0.528,-3.48 -0.72,-5.976l1.872,-42.768c0,-1.248 0.672,-1.872 2.016,-1.872c0.48,0 1.152,0.072 2.016,0.216c0.864,0.144 1.776,0.36 2.736,0.648c0.96,0.288 1.776,0.648 2.448,1.08c0.672,0.432 1.008,0.936 1.008,1.512l0,29.232c0.096,-0.096 0.24,-0.48 0.432,-1.152c0.672,-1.728 1.488,-3.864 2.448,-6.408c0.96,-2.544 2.016,-4.968 3.168,-7.272c1.152,-2.304 2.376,-4.272 3.672,-5.904c1.296,-1.632 2.616,-2.448 3.96,-2.448c1.728,0 3.048,0.408 3.96,1.224c0.912,0.816 1.608,1.848 2.088,3.096c0.48,1.248 0.768,2.592 0.864,4.032c0.096,1.44 0.144,2.832 0.144,4.176c0,0.96 -0.096,2.544 -0.288,4.752c-0.192,2.208 -0.288,5.52 -0.288,9.936c0,2.496 0.24,4.752 0.72,6.768c0.48,2.016 1.44,3.024 2.88,3.024c1.056,0 2.016,-0.48 2.88,-1.44c0.864,-0.96 1.656,-2.16 2.376,-3.6c0.72,-1.44 1.32,-2.976 1.8,-4.608c0.48,-1.632 0.768,-3.168 0.864,-4.608c0.096,-1.824 0.816,-2.736 2.16,-2.736c0.864,0 1.44,0.288 1.728,0.864c0.288,0.576 0.432,1.248 0.432,2.016l0,0.288c-0.096,1.92 -0.456,4.08 -1.08,6.48c-0.576,2.216 -1.398,4.31 -2.465,6.28c0.132,-0.114 0.282,-0.216 0.449,-0.304c0.816,-0.432 1.608,-0.648 2.376,-0.648c1.056,0 2.088,0.384 3.096,1.152c1.008,0.768 2.064,1.584 3.168,2.448c1.104,0.864 2.328,1.68 3.672,2.448c1.344,0.768 2.88,1.152 4.608,1.152c0.768,0 1.8,-0.264 3.096,-0.792c1.296,-0.528 1.944,-1.464 1.944,-2.808c0,-1.344 -0.552,-2.64 -1.656,-3.888c-1.104,-1.248 -2.496,-2.544 -4.176,-3.888c-1.68,-1.344 -3.48,-2.736 -5.4,-4.176c-1.92,-1.44 -3.72,-3 -5.4,-4.68c-1.68,-1.68 -3.072,-3.528 -4.176,-5.544c-1.104,-2.016 -1.656,-4.224 -1.656,-6.624c0,-3.36 1.08,-6.192 3.24,-8.496c2.16,-2.304 4.704,-4.128 7.632,-5.472c2.928,-1.344 5.928,-2.304 9,-2.88c3.072,-0.576 5.472,-0.864 7.2,-0.864c1.632,0 3.264,0.336 4.896,1.008c1.632,0.672 2.448,1.968 2.448,3.888c0,0.576 -0.12,1.416 -0.36,2.52c-0.24,1.104 -0.624,2.184 -1.152,3.24c-0.528,1.056 -1.224,1.992 -2.088,2.808c-0.864,0.816 -1.968,1.224 -3.312,1.224c-0.384,0 -0.768,-0.168 -1.152,-0.504c-0.384,-0.336 -0.816,-0.72 -1.296,-1.152c-0.48,-0.432 -0.984,-0.816 -1.512,-1.152c-0.528,-0.336 -1.128,-0.504 -1.8,-0.504c-3.36,0 -5.712,0.984 -7.056,2.952c-1.344,1.968 -2.016,4.056 -2.016,6.264c0,1.92 1.128,3.936 3.384,6.048c2.256,2.112 4.752,4.224 7.488,6.336c2.736,2.112 5.232,4.2 7.488,6.264c2.256,2.064 3.384,4.056 3.384,5.976c0,2.304 -0.768,4.08 -2.304,5.328c-1.536,1.248 -3.288,2.16 -5.256,2.736c-1.968,0.576 -3.936,0.936 -5.904,1.08c-1.968,0.144 -3.384,0.216 -4.248,0.216c-1.344,0 -3,-0.144 -4.968,-0.432c-1.968,-0.288 -3.888,-0.744 -5.76,-1.368c-1.872,-0.624 -3.456,-1.512 -4.752,-2.664c-1.296,-1.152 -1.944,-2.592 -1.944,-4.32c0,-0.26 0.025,-0.5 0.074,-0.722Zm96.982,-29.95c0,-1.056 -0.096,-2.304 -0.288,-3.744c-0.192,-1.44 -0.528,-2.784 -1.008,-4.032c-0.48,-1.248 -1.2,-2.304 -2.16,-3.168c-0.96,-0.864 -2.256,-1.296 -3.888,-1.296c-2.688,0 -4.872,1.224 -6.552,3.672c-1.68,2.448 -3,5.328 -3.96,8.64c-0.96,3.312 -1.584,6.72 -1.872,10.224c-0.288,3.504 -0.432,6.264 -0.432,8.28c0,1.536 0.072,3.384 0.216,5.544c0.144,2.16 0.408,4.2 0.792,6.12c0.384,1.92 0.936,3.552 1.656,4.896c0.72,1.344 1.656,2.016 2.808,2.016c2.784,0 4.92,-1.08 6.408,-3.24c1.488,-2.16 2.616,-4.848 3.384,-8.064c0.768,-3.216 1.32,-6.672 1.656,-10.368c0.336,-3.696 0.648,-7.08 0.936,-10.152c0.192,-1.632 0.624,-2.664 1.296,-3.096c0.672,-0.432 1.008,-0.744 1.008,-0.936l0,-1.296Zm125.28,22.032c-1.152,0.768 -2.736,1.344 -4.752,1.728c-2.016,0.384 -3.696,0.576 -5.04,0.576c-2.592,0 -4.584,-0.192 -5.976,-0.576c-1.392,-0.384 -2.904,-1.152 -4.536,-2.304l-0.144,3.024c0,1.056 0.144,2.16 0.432,3.312c0.288,1.152 0.744,2.208 1.368,3.168c0.624,0.96 1.512,1.752 2.664,2.376c1.152,0.624 2.592,0.936 4.32,0.936c2.112,0 3.912,-0.408 5.4,-1.224c1.488,-0.816 2.688,-1.848 3.6,-3.096c0.912,-1.248 1.584,-2.592 2.016,-4.032c0.432,-1.44 0.648,-2.736 0.648,-3.888Zm0.72,-11.808c0,-0.384 -0.024,-1.248 -0.072,-2.592c-0.048,-1.344 -0.144,-2.928 -0.288,-4.752c-0.144,-1.824 -0.384,-3.72 -0.72,-5.688c-0.336,-1.968 -0.816,-3.768 -1.44,-5.4c-0.624,-1.632 -1.416,-3 -2.376,-4.104c-0.96,-1.104 -2.16,-1.656 -3.6,-1.656c-1.44,0 -2.832,0.576 -4.176,1.728c-1.344,1.152 -2.544,2.64 -3.6,4.464c-1.056,1.824 -1.896,3.888 -2.52,6.192c-0.624,2.304 -0.936,4.56 -0.936,6.768c0,3.84 0.768,6.648 2.304,8.424c1.536,1.776 4.176,2.664 7.92,2.664c2.784,0 5.064,-0.432 6.84,-1.296c1.776,-0.864 2.664,-1.536 2.664,-2.016l0,-2.736Zm84.96,-15.696c0,-0.768 -0.216,-1.584 -0.648,-2.448c-0.432,-0.864 -1.224,-1.296 -2.376,-1.296c-1.728,0 -3.216,0.912 -4.464,2.736c-1.248,1.824 -2.28,3.912 -3.096,6.264c-0.816,2.352 -1.416,4.608 -1.8,6.768c-0.384,2.16 -0.576,3.576 -0.576,4.248l0,0.432c0,0.864 0.072,1.56 0.216,2.088c0.144,0.528 0.648,0.792 1.512,0.792l0.72,0c1.92,0 3.552,-0.72 4.896,-2.16c1.344,-1.44 2.424,-3.168 3.24,-5.184c0.816,-2.016 1.416,-4.08 1.8,-6.192c0.384,-2.112 0.576,-3.84 0.576,-5.184l0,-0.864Zm-127.008,-27.36c0,-0.96 -0.024,-2.112 -0.072,-3.456c-0.048,-1.344 -0.192,-2.664 -0.432,-3.96c-0.24,-1.296 -0.552,-2.4 -0.936,-3.312c-0.384,-0.912 -0.912,-1.368 -1.584,-1.368c-0.96,0 -1.728,1.344 -2.304,4.032c-0.576,2.688 -1.032,6.216 -1.368,10.584c-0.336,4.368 -0.576,9.312 -0.72,14.832c-0.144,5.52 -0.216,11.112 -0.216,16.776l0,5.112c0,1.776 0.096,3.336 0.288,4.68c3.168,-7.584 5.184,-14.928 6.048,-22.032c0.864,-7.104 1.296,-14.4 1.296,-21.888Zm-247.392,3.024c0.192,-0.768 0.384,-1.488 0.576,-2.16c0.192,-0.672 0.288,-1.44 0.288,-2.304c0,-1.248 -0.312,-2.376 -0.936,-3.384c-0.624,-1.008 -1.752,-1.512 -3.384,-1.512c-2.112,0 -3.84,0.864 -5.184,2.592c-1.344,1.728 -2.376,3.792 -3.096,6.192c-0.72,2.4 -1.224,4.896 -1.512,7.488c-0.288,2.592 -0.432,4.704 -0.432,6.336c0,1.248 0.096,3.048 0.288,5.4c0.192,2.352 0.648,4.68 1.368,6.984c0.72,2.304 1.728,4.32 3.024,6.048c1.296,1.728 3.048,2.592 5.256,2.592c0.192,0 0.744,-0.048 1.656,-0.144c0.912,-0.096 1.608,-0.24 2.088,-0.432l0,-33.696Z" style="fill:#221f20;fill-rule:nonzero;"/></svg>